Coordinates
version=1
nRows=13
nColumns=22
inDegrees=yes

Units are S.I. units (second, meters, Newtons, ...)
If the header above contains a line with 'inDegrees', this indicates whether rotational values are in degrees (yes) or radians (no).

endheader
time	pelvis_tilt	pelvis_list	pelvis_rotation	pelvis_tx	pelvis_ty	pelvis_tz	hip_flexion_r	hip_adduction_r	hip_rotation_r	knee_angle_r	ankle_angle_r	subtalar_angle_r	hip_flexion_l	hip_adduction_l	hip_rotation_l	knee_angle_l	ankle_angle_l	subtalar_angle_l	lumbar_extension	lumbar_bending	lumbar_rotation
      3.54000000	      1.82757882	     -5.41939120	      1.12638826	     -0.49299865	      1.01492557	     -0.15699204	     10.77935457	      9.73858475	     -4.69546420	    -19.10947744	      6.63344015	     -3.91782985	      6.83064982	     -8.98045063	     -4.90309225	    -55.15942620	      6.23664225	      6.49608116	    -14.25667906	      6.74684060	      2.28666005
      3.55000000	      2.00240570	     -5.45556562	      1.22853518	     -0.48793598	      1.01569152	     -0.15565022	     10.06023295	      9.90276413	     -4.63959116	    -18.71365356	      6.77931327	     -3.99276890	      7.54091052	     -9.47453067	     -5.16808327	    -55.72404390	      6.74288715	      5.51742380	    -14.42389985	      6.71935549	      2.62578736
      3.56000000	      2.15726980	     -5.45418946	      1.30045775	     -0.48295634	      1.01644756	     -0.15435892	      9.37244524	     10.02092229	     -4.58675852	    -18.33256428	      6.92234131	     -4.04047506	      8.23334056	     -9.85837131	     -5.36574858	    -56.06369207	      7.23334600	      4.59275420	    -14.57588073	      6.65191101	      2.97688318
      3.57000000	      2.28904284	     -5.42310113	      1.34451117	     -0.47807019	      1.01717775	     -0.15314390	      8.71931847	     10.09859050	     -4.53360771	    -17.96429307	      7.05778246	     -4.06036021	      8.91553171	    -10.13173955	     -5.48788335	    -56.19321934	      7.68368044	      3.76250265	    -14.71098595	      6.55852054	      3.34200555
      3.58000000	      2.39666178	     -5.37267020	      1.36191617	     -0.47327956	      1.01786399	     -0.15200292	      8.10623144	     10.14529801	     -4.48668712	    -17.61518493	      7.19260990	     -4.05592781	      9.59097987	    -10.30775871	     -5.53861862	    -56.12803220	      8.09705305	      3.08380426	    -14.83201887	      6.45021705	      3.71860751
      3.59000000	      2.47861507	     -5.31261021	      1.35008267	     -0.46854591	      1.01848790	     -0.15093651	      7.53171730	     10.16959806	     -4.46484387	    -17.28239083	      7.33942779	     -4.03820695	     10.25866483	    -10.41039768	     -5.54917251	    -55.88163808	      8.50116469	      2.61148705	    -14.93197139	      6.34027695	      4.09963419
      3.60000000	      2.55450180	     -5.23014106	      1.33966752	     -0.46389453	      1.01909279	     -0.15000207	      6.96460346	     10.16369148	     -4.38972006	    -16.94609316	      7.47235117	     -4.00707597	     10.90603910	    -10.40828986	     -5.46657645	    -55.46117223	      8.83415168	      2.19952263	    -15.03624390	      6.21987287	      4.46991988
      3.61000000	      2.57999791	     -5.14858224	      1.32771884	     -0.45931279	      1.01956790	     -0.14916709	      6.46234873	     10.14877966	     -4.32430009	    -16.61827418	      7.61046720	     -3.99587227	     11.59346133	    -10.35061628	     -5.32357874	    -54.90629893	      9.16475536	      2.09238949	    -15.09271811	      6.11266131	      4.80059362
      3.62000000	      2.65596629	     -5.08002667	      1.27057842	     -0.45471450	      1.02009467	     -0.14837206	      5.90295946	     10.14665852	     -4.20888074	    -16.29445648	      7.75062129	     -3.95923060	     12.16284810	    -10.27651661	     -5.20752685	    -54.17623185	      9.46273555	      1.87809390	    -15.21656838	      6.02201891	      5.20693459
      3.63000000	      2.66333816	     -5.01539438	      1.25256169	     -0.45019755	      1.02044861	     -0.14773698	      5.42812494	     10.13860992	     -4.09144922	    -15.97519123	      7.88672116	     -3.95039364	     12.81061139	    -10.15253425	     -5.00311204	    -53.34628449	      9.73877642	      1.84112075	    -15.26568975	      5.95876209	      5.52865208
      3.64000000	      2.72542373	     -4.94724970	      1.18059817	     -0.44568005	      1.02084834	     -0.14707417	      4.89277949	     10.12693995	     -3.94040082	    -15.66047986	      8.04591575	     -3.92611476	     13.33647748	    -10.02201463	     -4.87049733	    -52.37288735	     10.01053339	      1.79908374	    -15.39337546	      5.87691228	      5.91785961
      3.65000000	      2.76278757	     -4.89456769	      1.13160460	     -0.44122604	      1.02114767	     -0.14651280	      4.39315676	     10.12469071	     -3.79272139	    -15.35138593	      8.19336572	     -3.91032417	     13.87878766	     -9.88068552	     -4.70129943	    -51.31080544	     10.24266198	      1.80309438	    -15.50055610	      5.82643082	      6.26981153
      3.66000000	      2.78362374	     -4.85324562	      1.07838516	     -0.43682575	      1.02135787	     -0.14597165	      3.92234759	     10.12994471	     -3.65388372	    -15.05438531	      8.34493040	     -3.90346465	     14.41664456	     -9.74303966	     -4.54308177	    -50.16688934	     10.45362644	      1.82918141	    -15.59950977	      5.78641523	      6.61215991
